<!--
  SOLARPROPHET ICON SET · v1.0
  All UI icons in one SVG sprite. Use via <use href="icons.svg#icon-NAME"/>
  Stroke style · 1.8px · round caps + joins · 24x24 viewBox
-->
<svg xmlns="http://www.w3.org/2000/svg" style="display:none;">
  <defs>
    <!-- Map / Location -->
    <symbol id="icon-map" viewBox="0 0 24 24" fill="none" stroke="currentColor" stroke-width="1.8" stroke-linecap="round" stroke-linejoin="round">
      <circle cx="12" cy="10" r="3"/>
      <path d="M12 2a8 8 0 0 0-8 8c0 5 8 12 8 12s8-7 8-12a8 8 0 0 0-8-8z"/>
    </symbol>

    <!-- Predictions / Trending -->
    <symbol id="icon-predictions" viewBox="0 0 24 24" fill="none" stroke="currentColor" stroke-width="1.8" stroke-linecap="round" stroke-linejoin="round">
      <path d="M3 3v18h18"/>
      <path d="M7 14l4-4 4 4 5-5"/>
    </symbol>

    <!-- Compare / Bars -->
    <symbol id="icon-compare" viewBox="0 0 24 24" fill="none" stroke="currentColor" stroke-width="1.8" stroke-linecap="round" stroke-linejoin="round">
      <rect x="3" y="3" width="7" height="18" rx="1"/>
      <rect x="14" y="3" width="7" height="11" rx="1"/>
    </symbol>

    <!-- System config / Grid -->
    <symbol id="icon-config" viewBox="0 0 24 24" fill="none" stroke="currentColor" stroke-width="1.8" stroke-linecap="round" stroke-linejoin="round">
      <path d="M3 3h18v18H3z"/>
      <path d="M9 3v18M15 3v18M3 9h18M3 15h18"/>
    </symbol>

    <!-- Explainability / Sphere -->
    <symbol id="icon-explain" viewBox="0 0 24 24" fill="none" stroke="currentColor" stroke-width="1.8" stroke-linecap="round" stroke-linejoin="round">
      <circle cx="12" cy="12" r="10"/>
      <path d="M2 12h20M12 2a15 15 0 0 1 0 20M12 2a15 15 0 0 0 0 20"/>
    </symbol>

    <!-- Reports / Download -->
    <symbol id="icon-reports" viewBox="0 0 24 24" fill="none" stroke="currentColor" stroke-width="1.8" stroke-linecap="round" stroke-linejoin="round">
      <path d="M21 15v4a2 2 0 0 1-2 2H5a2 2 0 0 1-2-2v-4"/>
      <polyline points="7 10 12 15 17 10"/>
      <line x1="12" y1="15" x2="12" y2="3"/>
    </symbol>

    <!-- Saved / Bookmark -->
    <symbol id="icon-saved" viewBox="0 0 24 24" fill="none" stroke="currentColor" stroke-width="1.8" stroke-linecap="round" stroke-linejoin="round">
      <path d="M19 21l-7-5-7 5V5a2 2 0 0 1 2-2h10a2 2 0 0 1 2 2z"/>
    </symbol>

    <!-- Premium / Star -->
    <symbol id="icon-premium" viewBox="0 0 24 24" fill="none" stroke="currentColor" stroke-width="1.8" stroke-linecap="round" stroke-linejoin="round">
      <polygon points="12 2 15.09 8.26 22 9.27 17 14.14 18.18 21.02 12 17.77 5.82 21.02 7 14.14 2 9.27 8.91 8.26 12 2"/>
    </symbol>

    <!-- Settings / Cog -->
    <symbol id="icon-settings" viewBox="0 0 24 24" fill="none" stroke="currentColor" stroke-width="1.8" stroke-linecap="round" stroke-linejoin="round">
      <circle cx="12" cy="12" r="3"/>
      <path d="M19.4 15a1.65 1.65 0 0 0 .33 1.82l.06.06a2 2 0 0 1-2.83 2.83l-.06-.06a1.65 1.65 0 0 0-1.82-.33 1.65 1.65 0 0 0-1 1.51V21a2 2 0 0 1-4 0v-.09A1.65 1.65 0 0 0 9 19.4a1.65 1.65 0 0 0-1.82.33l-.06.06a2 2 0 1 1-2.83-2.83l.06-.06a1.65 1.65 0 0 0 .33-1.82 1.65 1.65 0 0 0-1.51-1H3a2 2 0 0 1 0-4h.09A1.65 1.65 0 0 0 4.6 9a1.65 1.65 0 0 0-.33-1.82l-.06-.06a2 2 0 1 1 2.83-2.83l.06.06a1.65 1.65 0 0 0 1.82.33H9a1.65 1.65 0 0 0 1-1.51V3a2 2 0 0 1 4 0v.09a1.65 1.65 0 0 0 1 1.51 1.65 1.65 0 0 0 1.82-.33l.06-.06a2 2 0 1 1 2.83 2.83l-.06.06a1.65 1.65 0 0 0-.33 1.82V9a1.65 1.65 0 0 0 1.51 1H21a2 2 0 0 1 0 4h-.09a1.65 1.65 0 0 0-1.51 1z"/>
    </symbol>

    <!-- Search -->
    <symbol id="icon-search" viewBox="0 0 24 24" fill="none" stroke="currentColor" stroke-width="1.8" stroke-linecap="round" stroke-linejoin="round">
      <circle cx="11" cy="11" r="8"/>
      <line x1="21" y1="21" x2="16.65" y2="16.65"/>
    </symbol>

    <!-- Plus -->
    <symbol id="icon-plus" viewBox="0 0 24 24" fill="none" stroke="currentColor" stroke-width="1.8" stroke-linecap="round" stroke-linejoin="round">
      <line x1="12" y1="5" x2="12" y2="19"/>
      <line x1="5" y1="12" x2="19" y2="12"/>
    </symbol>

    <!-- Minus -->
    <symbol id="icon-minus" viewBox="0 0 24 24" fill="none" stroke="currentColor" stroke-width="1.8" stroke-linecap="round">
      <line x1="5" y1="12" x2="19" y2="12"/>
    </symbol>

    <!-- Close / X -->
    <symbol id="icon-close" viewBox="0 0 24 24" fill="none" stroke="currentColor" stroke-width="1.8" stroke-linecap="round">
      <line x1="18" y1="6" x2="6" y2="18"/>
      <line x1="6" y1="6" x2="18" y2="18"/>
    </symbol>

    <!-- Check -->
    <symbol id="icon-check" viewBox="0 0 24 24" fill="none" stroke="currentColor" stroke-width="2.5" stroke-linecap="round" stroke-linejoin="round">
      <polyline points="20 6 9 17 4 12"/>
    </symbol>

    <!-- Arrow right -->
    <symbol id="icon-arrow-right" viewBox="0 0 24 24" fill="none" stroke="currentColor" stroke-width="1.8" stroke-linecap="round" stroke-linejoin="round">
      <line x1="5" y1="12" x2="19" y2="12"/>
      <polyline points="12 5 19 12 12 19"/>
    </symbol>

    <!-- Arrow left -->
    <symbol id="icon-arrow-left" viewBox="0 0 24 24" fill="none" stroke="currentColor" stroke-width="1.8" stroke-linecap="round" stroke-linejoin="round">
      <line x1="19" y1="12" x2="5" y2="12"/>
      <polyline points="12 19 5 12 12 5"/>
    </symbol>

    <!-- Chevron right -->
    <symbol id="icon-chevron-right" viewBox="0 0 24 24" fill="none" stroke="currentColor" stroke-width="1.8" stroke-linecap="round" stroke-linejoin="round">
      <polyline points="9 18 15 12 9 6"/>
    </symbol>

    <!-- Chevron down -->
    <symbol id="icon-chevron-down" viewBox="0 0 24 24" fill="none" stroke="currentColor" stroke-width="1.8" stroke-linecap="round" stroke-linejoin="round">
      <polyline points="6 9 12 15 18 9"/>
    </symbol>

    <!-- Trend up -->
    <symbol id="icon-trend-up" viewBox="0 0 24 24" fill="none" stroke="currentColor" stroke-width="1.8" stroke-linecap="round" stroke-linejoin="round">
      <polyline points="23 6 13.5 15.5 8.5 10.5 1 18"/>
      <polyline points="17 6 23 6 23 12"/>
    </symbol>

    <!-- Trend down -->
    <symbol id="icon-trend-down" viewBox="0 0 24 24" fill="none" stroke="currentColor" stroke-width="1.8" stroke-linecap="round" stroke-linejoin="round">
      <polyline points="23 18 13.5 8.5 8.5 13.5 1 6"/>
      <polyline points="17 18 23 18 23 12"/>
    </symbol>

    <!-- Info -->
    <symbol id="icon-info" viewBox="0 0 24 24" fill="none" stroke="currentColor" stroke-width="1.8" stroke-linecap="round" stroke-linejoin="round">
      <circle cx="12" cy="12" r="10"/>
      <line x1="12" y1="16" x2="12" y2="12"/>
      <line x1="12" y1="8" x2="12.01" y2="8"/>
    </symbol>

    <!-- Alert / Warning -->
    <symbol id="icon-alert" viewBox="0 0 24 24" fill="none" stroke="currentColor" stroke-width="1.8" stroke-linecap="round" stroke-linejoin="round">
      <path d="M10.29 3.86L1.82 18a2 2 0 0 0 1.71 3h16.94a2 2 0 0 0 1.71-3L13.71 3.86a2 2 0 0 0-3.42 0z"/>
      <line x1="12" y1="9" x2="12" y2="13"/>
      <line x1="12" y1="17" x2="12.01" y2="17"/>
    </symbol>

    <!-- User -->
    <symbol id="icon-user" viewBox="0 0 24 24" fill="none" stroke="currentColor" stroke-width="1.8" stroke-linecap="round" stroke-linejoin="round">
      <path d="M20 21v-2a4 4 0 0 0-4-4H8a4 4 0 0 0-4 4v2"/>
      <circle cx="12" cy="7" r="4"/>
    </symbol>

    <!-- Users -->
    <symbol id="icon-users" viewBox="0 0 24 24" fill="none" stroke="currentColor" stroke-width="1.8" stroke-linecap="round" stroke-linejoin="round">
      <path d="M17 21v-2a4 4 0 0 0-4-4H5a4 4 0 0 0-4 4v2"/>
      <circle cx="9" cy="7" r="4"/>
      <path d="M23 21v-2a4 4 0 0 0-3-3.87"/>
      <path d="M16 3.13a4 4 0 0 1 0 7.75"/>
    </symbol>

    <!-- Sun (decorative) -->
    <symbol id="icon-sun" viewBox="0 0 24 24" fill="none" stroke="currentColor" stroke-width="1.8" stroke-linecap="round" stroke-linejoin="round">
      <circle cx="12" cy="12" r="5"/>
      <line x1="12" y1="1" x2="12" y2="3"/>
      <line x1="12" y1="21" x2="12" y2="23"/>
      <line x1="4.22" y1="4.22" x2="5.64" y2="5.64"/>
      <line x1="18.36" y1="18.36" x2="19.78" y2="19.78"/>
      <line x1="1" y1="12" x2="3" y2="12"/>
      <line x1="21" y1="12" x2="23" y2="12"/>
      <line x1="4.22" y1="19.78" x2="5.64" y2="18.36"/>
      <line x1="18.36" y1="5.64" x2="19.78" y2="4.22"/>
    </symbol>

    <!-- Moon (theme toggle) -->
    <symbol id="icon-moon" viewBox="0 0 24 24" fill="none" stroke="currentColor" stroke-width="1.8" stroke-linecap="round" stroke-linejoin="round">
      <path d="M21 12.79A9 9 0 1 1 11.21 3 7 7 0 0 0 21 12.79z"/>
    </symbol>

    <!-- Lock -->
    <symbol id="icon-lock" viewBox="0 0 24 24" fill="none" stroke="currentColor" stroke-width="1.8" stroke-linecap="round" stroke-linejoin="round">
      <rect x="3" y="11" width="18" height="11" rx="2"/>
      <path d="M7 11V7a5 5 0 0 1 10 0v4"/>
    </symbol>

    <!-- Eye -->
    <symbol id="icon-eye" viewBox="0 0 24 24" fill="none" stroke="currentColor" stroke-width="1.8" stroke-linecap="round" stroke-linejoin="round">
      <path d="M1 12s4-8 11-8 11 8 11 8-4 8-11 8-11-8-11-8z"/>
      <circle cx="12" cy="12" r="3"/>
    </symbol>

    <!-- Filter -->
    <symbol id="icon-filter" viewBox="0 0 24 24" fill="none" stroke="currentColor" stroke-width="1.8" stroke-linecap="round" stroke-linejoin="round">
      <polygon points="22 3 2 3 10 12.46 10 19 14 21 14 12.46 22 3"/>
    </symbol>

    <!-- Calendar -->
    <symbol id="icon-calendar" viewBox="0 0 24 24" fill="none" stroke="currentColor" stroke-width="1.8" stroke-linecap="round" stroke-linejoin="round">
      <rect x="3" y="4" width="18" height="18" rx="2"/>
      <line x1="16" y1="2" x2="16" y2="6"/>
      <line x1="8" y1="2" x2="8" y2="6"/>
      <line x1="3" y1="10" x2="21" y2="10"/>
    </symbol>

    <!-- Clock -->
    <symbol id="icon-clock" viewBox="0 0 24 24" fill="none" stroke="currentColor" stroke-width="1.8" stroke-linecap="round" stroke-linejoin="round">
      <circle cx="12" cy="12" r="10"/>
      <polyline points="12 6 12 12 16 14"/>
    </symbol>

    <!-- More / kebab -->
    <symbol id="icon-more" viewBox="0 0 24 24" fill="currentColor" stroke="none">
      <circle cx="12" cy="5" r="1.5"/>
      <circle cx="12" cy="12" r="1.5"/>
      <circle cx="12" cy="19" r="1.5"/>
    </symbol>

    <!-- Menu / hamburger -->
    <symbol id="icon-menu" viewBox="0 0 24 24" fill="none" stroke="currentColor" stroke-width="1.8" stroke-linecap="round">
      <line x1="3" y1="6" x2="21" y2="6"/>
      <line x1="3" y1="12" x2="21" y2="12"/>
      <line x1="3" y1="18" x2="21" y2="18"/>
    </symbol>

    <!-- Mail -->
    <symbol id="icon-mail" viewBox="0 0 24 24" fill="none" stroke="currentColor" stroke-width="1.8" stroke-linecap="round" stroke-linejoin="round">
      <path d="M4 4h16c1.1 0 2 .9 2 2v12c0 1.1-.9 2-2 2H4c-1.1 0-2-.9-2-2V6c0-1.1.9-2 2-2z"/>
      <polyline points="22,6 12,13 2,6"/>
    </symbol>
  </defs>
</svg>
